# xmcd
#
# Track frame offsets:
#	150
#	13123
#	26323
#	51549
#	66519
#	77829
#	89699
#	104599
#	116099
#	135136
#	152111
#	162160
#	177544
#	191716
#	206419
#
# Disc length: 2964 seconds
#
# Revision: 0
# Processed by: cddbd v1.5PL3 Copyright (c) Steve Scherf et al.
# Submitted via: dBpowerAMP V4.0
#
DISCID=d30b920f
DTITLE=Joan Baez - Legendarios del siglo XX
DYEAR=1900
DGENRE=Blues
TTITLE0=El preso no 9
TTITLE1=La casa del sol naciente
TTITLE2=Carrickfergus
TTITLE3=Donna Donna
TTITLE4=Railroad boy
TTITLE5=Old blue
TTITLE6=Lily of the west
TTITLE7=Queens of hearts
TTITLE8=Henty Martin
TTITLE9=East Virginia
TTITLE10=No nos moveran
TTITLE11=It ain't me baby
TTITLE12=The moon is a harsh mistress
TTITLE13=Tears in my eyes
TTITLE14=Little Moses
EXTD=
EXTT0=
EXTT1=
EXTT2=
EXTT3=
EXTT4=
EXTT5=
EXTT6=
EXTT7=
EXTT8=
EXTT9=
EXTT10=
EXTT11=
EXTT12=
EXTT13=
EXTT14=
PLAYORDER=
